<?xml version="1.0" encoding="UTF-8"?>
<svg version="1.1" xmlns="http://www.w3.org/2000/svg" width="1408" height="768">
<path d="M0 0 C464.64 0 929.28 0 1408 0 C1408 253.44 1408 506.88 1408 768 C943.36 768 478.72 768 0 768 C0 514.56 0 261.12 0 0 Z " fill="#F7FAFA" transform="translate(0,0)"/>
<path d="M0 0 C1.16080078 -0.020625 2.32160156 -0.04125 3.51757812 -0.0625 C14.32340128 -0.11060606 24.26319195 1.65032479 34.0625 6.25 C35.0525 6.559375 36.0425 6.86875 37.0625 7.1875 C40.71718062 8.48186605 43.73999601 10.2564976 47.0625 12.25 C47.0625 12.91 47.0625 13.57 47.0625 14.25 C48.0525 14.25 49.0425 14.25 50.0625 14.25 C51.640625 15.68359375 51.640625 15.68359375 53.3125 17.6875 C53.9209375 18.41582031 54.529375 19.14414063 55.15625 19.89453125 C55.7853125 20.67183594 56.414375 21.44914062 57.0625 22.25 C57.6915625 23.01699219 58.320625 23.78398437 58.96875 24.57421875 C62.22549899 28.63825509 64.86186958 32.50127121 67.0625 37.25 C67.7225 37.91 68.3825 38.57 69.0625 39.25 C69.44140625 41.52734375 69.44140625 41.52734375 69.625 44.1875 C69.83956165 47.16071147 70.11269358 49.40058074 71.0625 52.25 C73.73048022 89.03734258 59.76923972 125.60107618 36.0625 153.25 C18.09981536 173.82955056 -8.11691443 185.86383389 -34.9375 189.25 C-39.28722159 189.45048817 -43.58849662 189.45106694 -47.9375 189.25 C-47.834375 190.52875 -47.73125 191.8075 -47.625 193.125 C-47.59275606 198.21954261 -49.3004467 201.69631458 -51.74609375 206.0859375 C-53.06148668 208.32110453 -53.06148668 208.32110453 -53.9375 211.25 C-53.13409646 213.78742114 -53.13409646 213.78742114 -51.9375 216.5 C-50.06454626 221.37613817 -49.44601318 224.24286568 -50.9375 229.25 C-51.5975 229.91 -52.2575 230.57 -52.9375 231.25 C-58.02995973 230.95478494 -61.69069197 229.55378342 -66.1875 227.25 C-71.98828809 224.50381017 -77.11310686 223.76089134 -83.5 223.625 C-97.17905051 223.3121961 -107.12639341 220.06110659 -116.9375 210.25 C-126.88975518 208.41866496 -134.47234108 211.16685433 -143.27514648 215.49169922 C-148.35966455 217.92107026 -151.43572177 218.84960436 -156.9375 217.25 C-159.09078668 212.94342665 -157.4566934 206.93737856 -156.09375 202.5078125 C-155.51299058 200.82060626 -154.90580993 199.14212837 -154.265625 197.4765625 C-153.74705832 195.20351555 -153.74705832 195.20351555 -154.78515625 192.9921875 C-158.24679142 190.19021058 -161.80362343 190.65717519 -166.125 190.75 C-167.46715576 190.76921509 -167.46715576 190.76921509 -168.83642578 190.78881836 C-189.05043843 191.39455571 -207.02928381 199.55238677 -220.9375 214.25 C-226.99848179 221.43817023 -232.8320755 229.9982789 -234.9375 239.25 C-234.02871094 239.37955078 -234.02871094 239.37955078 -233.1015625 239.51171875 C-219.77782102 241.74600771 -209.45378366 248.66645363 -201.5 259.625 C-195.8164685 268.89897774 -194.39341673 279.85578257 -196.6875 290.4375 C-200.02872686 301.64311118 -207.46286152 310.81583354 -217.40234375 317.00390625 C-222.35153175 319.43655798 -227.61735107 320.8612061 -232.9375 322.25 C-233.5871875 322.44851563 -234.236875 322.64703125 -234.90625 322.8515625 C-237.80981125 323.42110721 -240.66805139 323.29012309 -243.625 323.3125 C-252.48802788 323.63179881 -259.46122558 327.29160054 -267.18310547 331.35229492 C-271.13947499 333.37672725 -274.44975085 334.84049331 -278.9375 334.25 C-280.75 333.25 -280.75 333.25 -281.9375 331.25 C-282.57852677 325.26708346 -281.32616936 320.45919356 -279.49609375 314.765625 C-278.881508 311.99784023 -278.85308925 310.84647643 -279.9375 308.25 C-281.18021838 306.50573609 -282.47877597 304.80070456 -283.8125 303.125 C-290.89591079 293.50273229 -292.21192272 284.11574159 -290.9375 272.25 C-287.97270507 260.2332708 -279.38610952 250.62604743 -268.9375 244.25 C-268.30489258 243.99645752 -267.67228516 243.74291504 -267.02050781 243.48168945 C-262.82410222 241.76727793 -262.82410222 241.76727793 -259.8269043 238.51367188 C-259.01495436 236.42514052 -258.39061649 234.35223035 -257.8125 232.1875 C-257.33504069 230.6501788 -256.85063924 229.11499677 -256.359375 227.58203125 C-256.12412109 226.83775879 -255.88886719 226.09348633 -255.64648438 225.32666016 C-252.58830378 216.36905541 -246.66402779 208.66080067 -240.9375 201.25 C-240.45667969 200.61320313 -239.97585938 199.97640625 -239.48046875 199.3203125 C-225.90375658 182.33964079 -203.64214404 171.43724719 -182.57421875 167.64453125 C-178.35683903 167.1870067 -174.23686028 167.14030276 -170 167.1875 C-169.22076172 167.19201172 -168.44152344 167.19652344 -167.63867188 167.20117188 C-165.73824732 167.21283092 -163.83786294 167.23076123 -161.9375 167.25 C-161.8034375 166.17363281 -161.669375 165.09726562 -161.53125 163.98828125 C-160.09265089 154.93078551 -154.60275274 148.34365373 -147.9375 142.25 C-136.9711483 134.52333861 -124.23796582 131.56929598 -110.9375 133.25 C-97.3156878 135.80229744 -87.24228883 142.09259672 -78.9375 153.25 C-78.66292969 153.93707031 -78.38835937 154.62414062 -78.10546875 155.33203125 C-76.37848604 158.16797945 -74.25835996 158.61943464 -71.1875 159.75 C-67.7322877 161.03485282 -65.03483627 162.17825077 -62.0546875 164.375 C-58.23394602 166.67319037 -55.14343291 166.8603027 -50.8125 166.75 C-49.64485107 166.73078491 -49.64485107 166.73078491 -48.45361328 166.71118164 C-22.5376523 165.84215887 -0.12828778 155.69083297 18.0625 137.25 C24.14752503 130.54540879 28.71083198 123.16459621 33.0625 115.25 C32.03769531 115.59933594 31.01289062 115.94867188 29.95703125 116.30859375 C28.59640863 116.76839036 27.23572849 117.2280168 25.875 117.6875 C25.20146484 117.91759766 24.52792969 118.14769531 23.83398438 118.38476562 C18.66712135 120.12385611 14.23660949 121.30062113 8.796875 121.25 C-3.46787064 121.17207755 -11.46470247 123.63183345 -21.84228516 130.00830078 C-25.41632085 132.1264021 -29.14488239 133.92581573 -32.875 135.75 C-34.19685466 136.40576628 -35.51848982 137.06197534 -36.83984375 137.71875 C-37.86207031 138.2240625 -38.88429688 138.729375 -39.9375 139.25 C-40.5975 139.58 -41.2575 139.91 -41.9375 140.25 C-45.38738295 140.62498728 -47.32772999 140.59397283 -50.375 138.875 C-52.93538004 134.57356153 -51.95195196 131.02020389 -50.9375 126.25 C-49.92315382 122.28085804 -48.82436889 118.33722737 -47.66625977 114.40771484 C-47.33452759 113.27970459 -47.33452759 113.27970459 -46.99609375 112.12890625 C-46.79298584 111.4541626 -46.58987793 110.77941895 -46.38061523 110.08422852 C-45.82008699 108.07848025 -45.82008699 108.07848025 -45.9375 105.25 C-47.44000256 103.72258974 -47.44000256 103.72258974 -49.4375 102.25 C-59.35261626 93.86163616 -66.03199082 82.16935221 -67.9375 69.25 C-68.98308455 51.83501803 -66.09973196 36.77546601 -54.34375 23.1484375 C-44.05985328 11.9166184 -31.73207325 4.83656321 -16.9375 1.25 C-16.34211426 1.0756543 -15.74672852 0.90130859 -15.13330078 0.72167969 C-10.20296752 -0.33740457 -5.02115952 0.0216546 0 0 Z " fill="#FEFCF8" transform="translate(808.9375,199.75)"/>
<path d="M0 0 C5.2481162 3.88485342 11.60095204 9.29345848 14.0703125 15.47265625 C15.79729521 18.30860445 17.91742129 18.76005964 20.98828125 19.890625 C28.7143431 22.93310759 34.45202402 26.49977239 39.23828125 33.390625 C39.23828125 34.050625 39.23828125 34.710625 39.23828125 35.390625 C39.89828125 35.390625 40.55828125 35.390625 41.23828125 35.390625 C44.45363595 42.46440534 45.21578478 50.70723707 44.23828125 58.390625 C43.1669106 61.18701843 41.91099857 63.69719517 40.4296875 66.296875 C39.1045868 68.46780696 39.1045868 68.46780696 38.23828125 71.390625 C39.04168479 73.92804614 39.04168479 73.92804614 40.23828125 76.640625 C42.11123499 81.51676317 42.72976807 84.38349068 41.23828125 89.390625 C40.57828125 90.050625 39.91828125 90.710625 39.23828125 91.390625 C34.14582152 91.09540994 30.48508928 89.69440842 25.98828125 87.390625 C20.18749316 84.64443517 15.06267439 83.90151634 8.67578125 83.765625 C-5.00326926 83.4528211 -14.95061216 80.20173159 -24.76171875 70.390625 C-34.71397393 68.55928996 -42.29655983 71.30747933 -51.09936523 75.63232422 C-56.1838833 78.06169526 -59.25994052 78.99022936 -64.76171875 77.390625 C-66.91500543 73.08405165 -65.28091215 67.07800356 -63.91796875 62.6484375 C-63.33720933 60.96123126 -62.73002868 59.28275337 -62.08984375 57.6171875 C-61.57127707 55.34414055 -61.57127707 55.34414055 -62.609375 53.1328125 C-66.07101017 50.33083558 -69.62784218 50.79780019 -73.94921875 50.890625 C-75.29137451 50.90984009 -75.29137451 50.90984009 -76.66064453 50.92944336 C-96.87465718 51.53518071 -114.85350256 59.69301177 -128.76171875 74.390625 C-134.82270054 81.57879523 -140.65629425 90.1389039 -142.76171875 99.390625 C-141.85292969 99.52017578 -141.85292969 99.52017578 -140.92578125 99.65234375 C-127.60203977 101.88663271 -117.27800241 108.80707863 -109.32421875 119.765625 C-103.64068725 129.03960274 -102.21763548 139.99640757 -104.51171875 150.578125 C-107.85294561 161.78373618 -115.28708027 170.95645854 -125.2265625 177.14453125 C-130.1757505 179.57718298 -135.44156982 181.0018311 -140.76171875 182.390625 C-141.73625 182.68839844 -141.73625 182.68839844 -142.73046875 182.9921875 C-145.63403 183.56173221 -148.49227014 183.43074809 -151.44921875 183.453125 C-160.31224663 183.77242381 -167.28544433 187.43222554 -175.00732422 191.49291992 C-178.96369374 193.51735225 -182.2739696 194.98111831 -186.76171875 194.390625 C-188.57421875 193.390625 -188.57421875 193.390625 -189.76171875 191.390625 C-190.40274552 185.40770846 -189.15038811 180.59981856 -187.3203125 174.90625 C-186.70572675 172.13846523 -186.677308 170.98710143 -187.76171875 168.390625 C-189.00443713 166.64636109 -190.30299472 164.94132956 -191.63671875 163.265625 C-198.72012954 153.64335729 -200.03614147 144.25636659 -198.76171875 132.390625 C-195.79692382 120.3738958 -187.21032827 110.76667243 -176.76171875 104.390625 C-176.12911133 104.13708252 -175.49650391 103.88354004 -174.84472656 103.62231445 C-170.64832097 101.90790293 -170.64832097 101.90790293 -167.65112305 98.65429688 C-166.83917311 96.56576552 -166.21483524 94.49285535 -165.63671875 92.328125 C-165.15925944 90.7908038 -164.67485799 89.25562177 -164.18359375 87.72265625 C-163.94833984 86.97838379 -163.71308594 86.23411133 -163.47070312 85.46728516 C-160.41252253 76.50968041 -154.48824654 68.80142567 -148.76171875 61.390625 C-148.28089844 60.75382812 -147.80007813 60.11703125 -147.3046875 59.4609375 C-133.72797533 42.48026579 -111.46636279 31.57787219 -90.3984375 27.78515625 C-86.18105778 27.3276317 -82.06107903 27.28092776 -77.82421875 27.328125 C-77.04498047 27.33263672 -76.26574219 27.33714844 -75.46289062 27.34179688 C-73.56246607 27.35345592 -71.66208169 27.37138623 -69.76171875 27.390625 C-69.560625 25.77607422 -69.560625 25.77607422 -69.35546875 24.12890625 C-67.91686964 15.07141051 -62.42697149 8.48427873 -55.76171875 2.390625 C-39.27573639 -9.22505238 -17.43309292 -10.1590301 0 0 Z " fill="#2F9357" transform="translate(716.76171875,339.609375)"/>
<path d="M0 0 C1.16080078 -0.020625 2.32160156 -0.04125 3.51757812 -0.0625 C14.32340128 -0.11060606 24.26319195 1.65032479 34.0625 6.25 C35.0525 6.559375 36.0425 6.86875 37.0625 7.1875 C40.71718062 8.48186605 43.73999601 10.2564976 47.0625 12.25 C47.0625 12.91 47.0625 13.57 47.0625 14.25 C48.0525 14.25 49.0425 14.25 50.0625 14.25 C51.640625 15.68359375 51.640625 15.68359375 53.3125 17.6875 C53.9209375 18.41582031 54.529375 19.14414063 55.15625 19.89453125 C55.7853125 20.67183594 56.414375 21.44914062 57.0625 22.25 C58.00609375 23.40048828 58.00609375 23.40048828 58.96875 24.57421875 C62.22549899 28.63825509 64.86186958 32.50127121 67.0625 37.25 C67.7225 37.91 68.3825 38.57 69.0625 39.25 C69.44140625 41.52734375 69.44140625 41.52734375 69.625 44.1875 C69.83956165 47.16071147 70.11269358 49.40058074 71.0625 52.25 C73.73048022 89.03734258 59.76923972 125.60107618 36.0625 153.25 C18.09981536 173.82955056 -8.11691443 185.86383389 -34.9375 189.25 C-39.28722159 189.45048817 -43.58849662 189.45106694 -47.9375 189.25 C-48.44221197 187.48050388 -48.94110685 185.70934777 -49.4375 183.9375 C-49.7159375 182.95136719 -49.994375 181.96523438 -50.28125 180.94921875 C-50.9375 178.25 -50.9375 178.25 -50.9375 175.25 C-51.5975 175.25 -52.2575 175.25 -52.9375 175.25 C-57.9375 169.77380952 -57.9375 169.77380952 -57.9375 167.25 C-56.44476562 167.21132813 -56.44476562 167.21132813 -54.921875 167.171875 C-26.3706985 166.13944561 -2.30638788 157.8988726 18.0625 137.25 C24.14752503 130.54540879 28.71083198 123.16459621 33.0625 115.25 C32.03769531 115.59933594 31.01289062 115.94867188 29.95703125 116.30859375 C28.59640863 116.76839036 27.23572849 117.2280168 25.875 117.6875 C25.20146484 117.91759766 24.52792969 118.14769531 23.83398438 118.38476562 C18.66712135 120.12385611 14.23660949 121.30062113 8.796875 121.25 C-3.46787064 121.17207755 -11.46470247 123.63183345 -21.84228516 130.00830078 C-25.41632085 132.1264021 -29.14488239 133.92581573 -32.875 135.75 C-34.19685466 136.40576628 -35.51848982 137.06197534 -36.83984375 137.71875 C-37.86207031 138.2240625 -38.88429688 138.729375 -39.9375 139.25 C-40.5975 139.58 -41.2575 139.91 -41.9375 140.25 C-45.38738295 140.62498728 -47.32772999 140.59397283 -50.375 138.875 C-52.93538004 134.57356153 -51.95195196 131.02020389 -50.9375 126.25 C-49.92315382 122.28085804 -48.82436889 118.33722737 -47.66625977 114.40771484 C-47.44510498 113.65570801 -47.2239502 112.90370117 -46.99609375 112.12890625 C-46.79298584 111.4541626 -46.58987793 110.77941895 -46.38061523 110.08422852 C-45.82008699 108.07848025 -45.82008699 108.07848025 -45.9375 105.25 C-47.44000256 103.72258974 -47.44000256 103.72258974 -49.4375 102.25 C-59.35261626 93.86163616 -66.03199082 82.16935221 -67.9375 69.25 C-68.98308455 51.83501803 -66.09973196 36.77546601 -54.34375 23.1484375 C-44.05985328 11.9166184 -31.73207325 4.83656321 -16.9375 1.25 C-16.34211426 1.0756543 -15.74672852 0.90130859 -15.13330078 0.72167969 C-10.20296752 -0.33740457 -5.02115952 0.0216546 0 0 Z M-44.57421875 32.08203125 C-53.19488737 42.74386574 -55.66909376 53.86454378 -54.9375 67.25 C-52.91387343 79.80334447 -45.13909171 88.97464112 -35.9375 97.25 C-35.18597656 97.77464844 -34.43445313 98.29929687 -33.66015625 98.83984375 C-31.9375 100.25 -31.9375 100.25 -31.5 103.375 C-31.94306409 107.29928197 -32.92809083 110.47591848 -34.26953125 114.16015625 C-35.0477982 116.59508502 -35.18340894 118.70894094 -34.9375 121.25 C-31.26072298 120.22867305 -28.14430579 118.86582801 -24.8984375 116.90234375 C-13.62874999 110.15683013 -5.13105422 108.27386091 7.88134766 108.31152344 C12.82022917 108.17221315 17.40997647 106.80785856 22.0625 105.25 C22.90683594 104.98445313 23.75117187 104.71890625 24.62109375 104.4453125 C37.19790942 100.011053 47.89834998 90.77574406 54 78.9375 C58.46824716 69.53146106 58.65475826 57.63962259 56.15625 47.61328125 C53.70539351 41.47828472 50.39139941 36.21901235 46.0625 31.25 C45.62035156 30.68023437 45.17820312 30.11046875 44.72265625 29.5234375 C40.80896638 24.97649807 35.95818994 22.26425204 30.75 19.4375 C30.05092529 19.05215088 29.35185059 18.66680176 28.6315918 18.26977539 C5.32472269 6.15600131 -27.29448739 12.74027944 -44.57421875 32.08203125 Z " fill="#F98326" transform="translate(808.9375,199.75)"/>
<path d="M0 0 C5.2481162 3.88485342 11.60095204 9.29345848 14.0703125 15.47265625 C15.79729521 18.30860445 17.91742129 18.76005964 20.98828125 19.890625 C28.7143431 22.93310759 34.45202402 26.49977239 39.23828125 33.390625 C39.23828125 34.050625 39.23828125 34.710625 39.23828125 35.390625 C39.89828125 35.390625 40.55828125 35.390625 41.23828125 35.390625 C44.45363595 42.46440534 45.21578478 50.70723707 44.23828125 58.390625 C43.1669106 61.18701843 41.91099857 63.69719517 40.4296875 66.296875 C39.1045868 68.46780696 39.1045868 68.46780696 38.23828125 71.390625 C39.04168479 73.92804614 39.04168479 73.92804614 40.23828125 76.640625 C42.11123499 81.51676317 42.72976807 84.38349068 41.23828125 89.390625 C40.57828125 90.050625 39.91828125 90.710625 39.23828125 91.390625 C34.14582152 91.09540994 30.48508928 89.69440842 25.98828125 87.390625 C20.18749316 84.64443517 15.06267439 83.90151634 8.67578125 83.765625 C-5.00326926 83.4528211 -14.95061216 80.20173159 -24.76171875 70.390625 C-34.71397393 68.55928996 -42.29655983 71.30747933 -51.09936523 75.63232422 C-56.1838833 78.06169526 -59.25994052 78.99022936 -64.76171875 77.390625 C-66.91500543 73.08405165 -65.28091215 67.07800356 -63.91796875 62.6484375 C-63.33720933 60.96123126 -62.73002868 59.28275337 -62.08984375 57.6171875 C-61.55741794 55.33550993 -61.55741794 55.33550993 -62.703125 53.1484375 C-65.68823953 50.59947822 -68.69126593 50.71781918 -72.44921875 50.640625 C-73.15111328 50.61097656 -73.85300781 50.58132813 -74.57617188 50.55078125 C-76.30407299 50.48025467 -78.03290195 50.43315432 -79.76171875 50.390625 C-79.76171875 50.060625 -79.76171875 49.730625 -79.76171875 49.390625 C-73.82171875 48.895625 -73.82171875 48.895625 -67.76171875 48.390625 C-68.36980777 40.67588456 -68.36980777 40.67588456 -70.76171875 33.390625 C-70.76171875 32.070625 -70.76171875 30.750625 -70.76171875 29.390625 C-78.35171875 29.390625 -85.94171875 29.390625 -93.76171875 29.390625 C-93.76171875 29.060625 -93.76171875 28.730625 -93.76171875 28.390625 C-88.3968228 27.48578863 -83.25854418 27.26758838 -77.82421875 27.328125 C-77.04498047 27.33263672 -76.26574219 27.33714844 -75.46289062 27.34179688 C-73.56246607 27.35345592 -71.66208169 27.37138623 -69.76171875 27.390625 C-69.62765625 26.31425781 -69.49359375 25.23789062 -69.35546875 24.12890625 C-67.91686964 15.07141051 -62.42697149 8.48427873 -55.76171875 2.390625 C-39.27573639 -9.22505238 -17.43309292 -10.1590301 0 0 Z " fill="#48A460" transform="translate(716.76171875,339.609375)"/>
<path d="M0 0 C5.48127913 4.20326068 9.31680834 10.14328971 11.26171875 16.734375 C12.45685076 26.85315931 10.71190749 33.89671402 4.5703125 41.953125 C-1.18392339 48.39210295 -9.25114987 52.21382861 -17.73828125 53.734375 C-19.65088616 53.7896053 -21.56365033 53.84261782 -23.47680664 53.87329102 C-32.86985476 54.08082033 -39.48067248 56.03830879 -47.73828125 60.734375 C-48.73828125 58.734375 -48.73828125 58.734375 -48.30078125 57.109375 C-47.44638944 53.50194293 -46.80761959 50.34481421 -47.73828125 46.734375 C-49.56416967 44.53550225 -51.58559308 42.70767249 -53.69140625 40.77734375 C-58.89483938 35.58384083 -59.99930698 29.92337673 -60.30078125 22.734375 C-60.11027529 16.19367042 -58.59082718 11.95323082 -54.73828125 6.734375 C-54.16078125 5.8475 -53.58328125 4.960625 -52.98828125 4.046875 C-38.49727661 -10.84665755 -16.93917313 -10.74321184 0 0 Z " fill="#F8FDFA" transform="translate(589.73828125,457.265625)"/>
<path d="M0 0 C5.8431265 4.15741036 9.99701427 9.48218127 12.25 16.3125 C13.14675601 23.87236168 12.56938017 29.98311124 8.25 36.3125 C7.198125 37.859375 7.198125 37.859375 6.125 39.4375 C1.02174195 45.2022915 -6.33777597 48.72254388 -13.75 50.3125 C-17.19452677 50.44334082 -20.61897202 50.31042826 -24.0625 50.1875 C-31.87711909 50.02510424 -37.75035384 50.58822271 -44.75 54.3125 C-45.41 54.3125 -46.07 54.3125 -46.75 54.3125 C-46.60820313 53.52746094 -46.46640625 52.74242187 -46.3203125 51.93359375 C-45.27287313 45.91616106 -45.27287313 45.91616106 -46.9140625 40.2734375 C-47.98073214 39.16473161 -49.07008379 38.0774544 -50.1796875 37.01171875 C-54.33879511 32.51119186 -55.38702068 25.60065759 -55.16796875 19.64453125 C-53.93146675 12.74554343 -50.08172582 6.75560485 -44.75 2.3125 C-43.98042969 1.66861328 -43.98042969 1.66861328 -43.1953125 1.01171875 C-30.6560713 -8.78275767 -13.26121192 -8.09794472 0 0 Z " fill="#F7FDF9" transform="translate(711.75,348.6875)"/>
<path d="M0 0 C7.003778 1.57585005 11.86543316 6.0649706 16 11.75 C17.94327538 18.06564499 18.11467705 24.4142703 15.1875 30.4375 C14.04077908 32.47172139 12.88507928 34.13145412 11.34375 35.89453125 C9.59839476 38.62925937 9.8537991 40.08079378 10.3125 43.25 C10.43238281 44.14203125 10.55226563 45.0340625 10.67578125 45.953125 C10.78277344 46.62859375 10.88976562 47.3040625 11 48 C10.49855469 47.71125 9.99710938 47.4225 9.48046875 47.125 C3.32101793 44.10298665 -1.84817437 43.79221286 -8.5625 44 C-15.58996765 44.21202391 -20.93083418 43.9457501 -27 40 C-27.66 39.67 -28.32 39.34 -29 39 C-29 38.34 -29 37.68 -29 37 C-28.3709375 36.78085937 -27.741875 36.56171875 -27.09375 36.3359375 C-17.29539135 32.7058227 -8.76875011 27.14015595 -3.77734375 17.68359375 C-1.23370279 11.85783542 -0.26930408 6.32864589 0 0 Z " fill="#F7FDF9" transform="translate(734,369)"/>
<path d="M0 0 C3.15439769 0.93779391 4.45107611 1.9669574 6.3125 4.6875 C6.28946603 8.74147888 5.34878735 10.97277996 2.6171875 13.8359375 C1.48543722 14.92353085 0.34156576 15.99861551 -0.8125 17.0625 C-2.01475943 18.21563799 -3.21529687 19.37057414 -4.4140625 20.52734375 C-4.98801758 21.07632324 -5.56197266 21.62530273 -6.15332031 22.19091797 C-7.93079904 23.92483659 -9.57846168 25.73417578 -11.1875 27.625 C-11.95900391 28.52025391 -11.95900391 28.52025391 -12.74609375 29.43359375 C-13.87912001 30.74899849 -15.01124407 32.06518329 -16.14111328 33.38330078 C-17.82706649 35.33363869 -19.53666524 37.26119889 -21.25 39.1875 C-21.79269531 39.82421631 -22.33539062 40.46093262 -22.89453125 41.11694336 C-26.89594333 45.56572205 -26.89594333 45.56572205 -30.9375 46.1875 C-36.91552287 45.10058675 -40.3004998 39.99455045 -44.0390625 35.5703125 C-45.72814223 33.55607512 -45.72814223 33.55607512 -48.125 31.5625 C-49.6875 29.6875 -49.6875 29.6875 -50.125 26.625 C-49.6875 23.6875 -49.6875 23.6875 -48.5 21.8125 C-46.010762 20.26745573 -44.59049052 20.34994296 -41.6875 20.6875 C-39.23046875 22.3671875 -39.23046875 22.3671875 -36.875 24.5625 C-36.08480469 25.28179687 -35.29460938 26.00109375 -34.48046875 26.7421875 C-32.6875 28.6875 -32.6875 28.6875 -32.6875 30.6875 C-27.12065489 25.99885927 -22.04082279 21.05021577 -17.125 15.6875 C-13.41654275 11.66711644 -9.70270906 7.65313463 -5.890625 3.73046875 C-5.33922852 3.16094482 -4.78783203 2.5914209 -4.21972656 2.00463867 C-2.6875 0.6875 -2.6875 0.6875 0 0 Z " fill="#F78A2C" transform="translate(842.6875,239.3125)"/>
<path d="M0 0 C0.99 0 1.98 0 3 0 C3.24234375 0.74765625 3.4846875 1.4953125 3.734375 2.265625 C4.06953125 3.25046875 4.4046875 4.2353125 4.75 5.25 C5.23726562 6.71179688 5.23726562 6.71179688 5.734375 8.203125 C8.1241749 13.48428774 11.54038987 15.51730995 16.75 17.75 C17.73484375 18.17796875 18.7196875 18.6059375 19.734375 19.046875 C20.48203125 19.36140625 21.2296875 19.6759375 22 20 C22 20.66 22 21.32 22 22 C20.35 22.33 18.7 22.66 17 23 C16.505 24.485 16.505 24.485 16 26 C14.34928604 27.02611949 12.68029994 28.02308143 11 29 C7.96828047 31.42537563 7.08404635 32.70583778 6 36.5 C4.94639706 40.18761027 3.89616283 41.58653098 1 44 C-6 33.15 -6 33.15 -6 28 C-6.845625 27.731875 -7.69125 27.46375 -8.5625 27.1875 C-9.696875 26.795625 -10.83125 26.40375 -12 26 C-12.63421875 25.78214844 -13.2684375 25.56429687 -13.921875 25.33984375 C-15.8125 24.625 -15.8125 24.625 -19 23 C-19.9375 20.8125 -19.9375 20.8125 -20 19 C-16.30827405 15.46209597 -12.90609405 15.40884117 -8 15 C-8 14.34 -8 13.68 -8 13 C-7.34 13 -6.68 13 -6 13 C-5.87882813 12.43410156 -5.75765625 11.86820313 -5.6328125 11.28515625 C-5.46523438 10.55167969 -5.29765625 9.81820312 -5.125 9.0625 C-4.96257813 8.33160156 -4.80015625 7.60070312 -4.6328125 6.84765625 C-4 5 -4 5 -2 4 C-0.86649466 1.98330173 -0.86649466 1.98330173 0 0 Z " fill="#FA9E3E" transform="translate(883,185)"/>
<path d="M0 0 C2.475 0.495 2.475 0.495 5 1 C5.18175781 1.68707031 5.36351562 2.37414062 5.55078125 3.08203125 C5.80214844 3.98308594 6.05351563 4.88414062 6.3125 5.8125 C6.67794922 7.15248047 6.67794922 7.15248047 7.05078125 8.51953125 C8.04999792 11.13065299 8.80610551 12.30519051 11 14 C12.96530587 14.91614977 12.96530587 14.91614977 15.0625 15.5625 C17.80368039 16.46601756 18.90700794 16.90700794 21 19 C21 19.99 21 20.98 21 22 C18 24 18 24 15.125 24.75 C10.43480036 26.62607986 8.04087336 29.68509764 6.0234375 34.171875 C5.29389885 36.09458433 4.64019348 38.04572517 4 40 C2.16796875 39.86328125 2.16796875 39.86328125 0 39 C-1.38671875 36.41796875 -1.38671875 36.41796875 -2.6875 33.1875 C-4.76101914 28.72837592 -6.09278835 26.3068674 -10.6875 24.375 C-12.12399756 23.91353446 -13.56140078 23.45487137 -15 23 C-15.99 22.34 -16.98 21.68 -18 21 C-16.97451142 18.19309127 -16.38043616 17.18800256 -13.65234375 15.83984375 C-12.75644531 15.54207031 -11.86054687 15.24429687 -10.9375 14.9375 C-8.26295812 14.09965994 -8.26295812 14.09965994 -6 13 C-5.67 12.01 -5.34 11.02 -5 10 C-4.34 10 -3.68 10 -3 10 C-3 8.02 -3 6.04 -3 4 C-2.34 4 -1.68 4 -1 4 C-0.67 2.68 -0.34 1.36 0 0 Z " fill="#F69241" transform="translate(804,441)"/>
<path d="M0 0 C2.5 0.25 2.5 0.25 4.5 2.25 C4.6953125 4.6328125 4.6953125 4.6328125 4.625 7.375 C4.60695313 8.28507812 4.58890625 9.19515625 4.5703125 10.1328125 C4.54710937 10.83148438 4.52390625 11.53015625 4.5 12.25 C5.53060547 12.19779297 5.53060547 12.19779297 6.58203125 12.14453125 C7.48308594 12.11746094 8.38414062 12.09039062 9.3125 12.0625 C10.65248047 12.01029297 10.65248047 12.01029297 12.01953125 11.95703125 C14.5 12.25 14.5 12.25 16.3046875 13.6015625 C17.97948435 15.91124965 17.85691675 17.46604938 17.5 20.25 C15.5 22.25 15.5 22.25 12.8984375 22.4453125 C11.90070312 22.42210937 10.90296875 22.39890625 9.875 22.375 C8.37066406 22.34792969 8.37066406 22.34792969 6.8359375 22.3203125 C6.06507813 22.29710937 5.29421875 22.27390625 4.5 22.25 C4.52320313 23.02085937 4.54640625 23.79171875 4.5703125 24.5859375 C4.59738281 26.09027344 4.59738281 26.09027344 4.625 27.625 C4.64820313 28.62273437 4.67140625 29.62046875 4.6953125 30.6484375 C4.5 33.25 4.5 33.25 2.5 35.25 C0 35.5 0 35.5 -2.5 35.25 C-4.5 33.25 -4.5 33.25 -4.6953125 30.6484375 C-4.67210937 29.65070313 -4.64890625 28.65296875 -4.625 27.625 C-4.60695313 26.62210937 -4.58890625 25.61921875 -4.5703125 24.5859375 C-4.54710937 23.81507813 -4.52390625 23.04421875 -4.5 22.25 C-5.27085937 22.27320313 -6.04171875 22.29640625 -6.8359375 22.3203125 C-7.83882812 22.33835937 -8.84171875 22.35640625 -9.875 22.375 C-10.87273438 22.39820313 -11.87046875 22.42140625 -12.8984375 22.4453125 C-15.5 22.25 -15.5 22.25 -17.5 20.25 C-17.75 17.75 -17.75 17.75 -17.5 15.25 C-15.5 13.25 -15.5 13.25 -12.8984375 13.0546875 C-11.90070312 13.07789063 -10.90296875 13.10109375 -9.875 13.125 C-8.37066406 13.15207031 -8.37066406 13.15207031 -6.8359375 13.1796875 C-6.06507813 13.20289063 -5.29421875 13.22609375 -4.5 13.25 C-4.52320313 12.47914063 -4.54640625 11.70828125 -4.5703125 10.9140625 C-4.58835937 9.91117187 -4.60640625 8.90828125 -4.625 7.875 C-4.64820313 6.87726563 -4.67140625 5.87953125 -4.6953125 4.8515625 C-4.42769442 1.28688961 -3.56659343 0.35665934 0 0 Z " fill="#2E8F58" transform="translate(565.5,462.75)"/>
<path d="M0 0 C0 8.25 0 16.5 0 25 C16.03097054 22.02518072 32.41796181 17.19442182 44 5 C44.99 5.495 44.99 5.495 46 6 C38.0413961 14.5546227 29.69126043 18.99945323 18.89868164 23.24902344 C17.36726333 23.85473807 15.85403177 24.50631881 14.34765625 25.171875 C11.48466899 26.18178066 8.83483385 26.49469726 5.8125 26.75 C4.76707031 26.84796875 3.72164062 26.9459375 2.64453125 27.046875 C0 27 0 27 -2 25 C-2.31884766 22.75341797 -2.31884766 22.75341797 -2.4140625 19.9921875 C-2.45273437 19.00605469 -2.49140625 18.01992188 -2.53125 17.00390625 C-2.5621875 15.97136719 -2.593125 14.93882812 -2.625 13.875 C-2.66367187 12.83472656 -2.70234375 11.79445313 -2.7421875 10.72265625 C-2.83664766 8.14861689 -2.92221214 5.57458845 -3 3 C-4.70900002 3.7693541 -6.41716674 4.54055936 -8.125 5.3125 C-9.07632813 5.74175781 -10.02765625 6.17101562 -11.0078125 6.61328125 C-14.03369761 8.01561704 -17.0170449 9.50852245 -20 11 C-20.33 20.9 -20.66 30.8 -21 41 C-20.34 41 -19.68 41 -19 41 C-18.7525 41.639375 -18.505 42.27875 -18.25 42.9375 C-17.22102716 45.12067704 -17.22102716 45.12067704 -15.296875 45.62109375 C-10.24859061 46.45388896 -5.09791412 46.11988376 0 46 C0.97582031 45.98324219 1.95164062 45.96648438 2.95703125 45.94921875 C16.60549673 45.29573545 28.66534938 40.05784509 40.57421875 33.76953125 C43.3540826 32.33363806 46.07291682 31.09135988 49 30 C49 29.34 49 28.68 49 28 C49.99 28 50.98 28 52 28 C52.66 26.68 53.32 25.36 54 24 C54.99 24 55.98 24 57 24 C57 23.34 57 22.68 57 22 C57.66 22 58.32 22 59 22 C59 21.34 59 20.68 59 20 C60.64351457 18.63823078 62.31522656 17.31037934 64 16 C65.68528688 14.35216394 67.35697047 12.68997323 69 11 C69 15.19637178 67.30894681 16.1243256 64.375 19.0625 C43.83979281 39.25045282 18.13484709 48.99729034 -10.46875 49.36328125 C-14.30409899 48.96871548 -16.02752026 48.41768472 -19 46 C-22.58064503 41.48787551 -23.48858676 38.58232556 -23.390625 32.8515625 C-23.38496521 32.19417084 -23.37930542 31.53677917 -23.37347412 30.85946655 C-23.35126275 28.78053809 -23.3011042 26.70339837 -23.25 24.625 C-23.22991489 23.20705632 -23.21166765 21.78908535 -23.1953125 20.37109375 C-23.15145067 16.91349123 -23.08253437 13.45692049 -23 10 C-20.43873936 8.705826 -17.87606642 7.41459216 -15.3125 6.125 C-14.59126953 5.76019531 -13.87003906 5.39539063 -13.12695312 5.01953125 C-3.13352273 0 -3.13352273 0 0 0 Z " fill="#33865A" transform="translate(566,531)"/>
<path d="M0 0 C1.2219104 0.00607269 1.2219104 0.00607269 2.46850586 0.01226807 C3.30438232 0.01035461 4.14025879 0.00844116 5.00146484 0.00646973 C6.77010397 0.00510771 8.53875309 0.0088053 10.30737305 0.01715088 C13.02016579 0.02785031 15.7322963 0.01725631 18.44506836 0.00445557 C20.16121566 0.00577716 21.87736255 0.00833955 23.59350586 0.01226807 C24.40811279 0.0082196 25.22271973 0.00417114 26.06201172 0 C31.80108658 0.04797379 31.80108658 0.04797379 34.03100586 2.27789307 C33.4754503 6.83344862 33.4754503 6.83344862 32.03100586 8.27789307 C29.1583653 8.37896181 26.31026958 8.41758978 23.43725586 8.41070557 C22.57539673 8.41166229 21.7135376 8.41261902 20.82556152 8.41360474 C18.99967374 8.41428656 17.17378355 8.41243211 15.34790039 8.40826416 C12.54299508 8.40291593 9.73824991 8.40820906 6.93334961 8.41461182 C5.163818 8.41395104 3.3942865 8.41266987 1.62475586 8.41070557 C0.77997681 8.4127298 -0.06480225 8.41475403 -0.93518066 8.4168396 C-6.85404383 8.39284338 -6.85404383 8.39284338 -7.96899414 7.27789307 C-8.15649414 4.84039307 -8.15649414 4.84039307 -7.96899414 2.27789307 C-5.36593522 -0.32516585 -3.54620875 0.02964329 0 0 Z " fill="#4CA866" transform="translate(677.968994140625,359.72210693359375)"/>
<path d="M0 0 C1.21880859 -0.01224609 2.43761719 -0.02449219 3.69335938 -0.03710938 C5.43649414 -0.04000977 5.43649414 -0.04000977 7.21484375 -0.04296875 C8.28726318 -0.04707764 9.35968262 -0.05118652 10.46459961 -0.05541992 C13.0625 0.1875 13.0625 0.1875 15.0625 2.1875 C14.50694444 6.74305556 14.50694444 6.74305556 13.0625 8.1875 C8.92287717 8.44051239 4.77144004 8.37272549 0.625 8.375 C-0.54611328 8.38724609 -1.71722656 8.39949219 -2.92382812 8.41210938 C-4.04080078 8.41404297 -5.15777344 8.41597656 -6.30859375 8.41796875 C-7.33911865 8.42207764 -8.36964355 8.42618652 -9.43139648 8.43041992 C-11.9375 8.1875 -11.9375 8.1875 -13.9375 6.1875 C-14.125 3.625 -14.125 3.625 -13.9375 1.1875 C-11.29209403 -1.45790597 -3.56345815 0.00187847 0 0 Z " fill="#46A262" transform="translate(683.9375,374.8125)"/>
<path d="M0 0 C0.6902829 -0.00175232 1.3805658 -0.00350464 2.09176636 -0.00531006 C4.35824143 -0.00968659 6.6246375 -0.00680478 8.89111328 -0.00341797 C10.47763077 -0.00409237 12.06414815 -0.00506353 13.65066528 -0.00631714 C16.97089627 -0.00778856 20.29110028 -0.005658 23.61132812 -0.00097656 C27.85002232 0.00471105 32.08865304 0.00144432 36.32734489 -0.00454903 C39.60287954 -0.00817761 42.87839936 -0.00700536 46.15393448 -0.00442123 C47.71591321 -0.00375783 49.27789333 -0.00455972 50.83987045 -0.00690079 C53.03130358 -0.00946414 55.22263674 -0.00553495 57.4140625 0 C59.27887772 0.00119339 59.27887772 0.00119339 61.18136597 0.00241089 C65.13297072 0.13969706 68.92214908 0.58487324 72.83642578 1.12939453 C72.83642578 1.45939453 72.83642578 1.78939453 72.83642578 2.12939453 C71.73776688 2.14334763 70.63910797 2.15730072 69.50715637 2.17167664 C59.10641622 2.30691697 48.70633239 2.46760879 38.30635548 2.65263653 C32.96075759 2.74693863 27.61532608 2.83255577 22.26928711 2.89770508 C17.10109277 2.96101708 11.93376703 3.04795181 6.76621056 3.1506443 C4.80378855 3.18561104 2.8412005 3.21234855 0.87854958 3.2303524 C-9.55691827 3.33160831 -18.28143644 3.6632188 -27.86128235 8.16584778 C-28.62103867 8.48381821 -29.38079498 8.80178864 -30.16357422 9.12939453 C-30.82357422 8.79939453 -31.48357422 8.46939453 -32.16357422 8.12939453 C-26.54525539 3.47421607 -20.20899886 2.47178733 -13.16357422 1.12939453 C-11.80061722 0.86692429 -11.80061722 0.86692429 -10.41012573 0.59915161 C-6.8955673 0.09061549 -3.55110583 0.00227545 0 0 Z " fill="#CFA967" transform="translate(713.16357421875,470.87060546875)"/>
<path d="M0 0 C2.52588702 2.36292656 3.88820837 3.66462511 5 7 C5.66 7.66 6.32 8.32 7 9 C7.37890625 11.27734375 7.37890625 11.27734375 7.5625 13.9375 C7.77706165 16.91071147 8.05019358 19.15058074 9 22 C10.76582027 46.34794487 4.72819403 72.19650615 -6 94 C-6.99 94.99 -6.99 94.99 -8 96 C-8 94.35 -8 92.7 -8 91 C-7.34 91 -6.68 91 -6 91 C-5.87496094 90.27683594 -5.74992188 89.55367188 -5.62109375 88.80859375 C-5.01114663 86.05040521 -4.15168508 83.6642138 -3.0625 81.0625 C-0.58621659 74.99740004 1.10589724 69.51417724 2 63 C2.495 62.505 2.495 62.505 3 62 C3.20699563 60.50503158 3.36679259 59.0033408 3.5 57.5 C3.88888889 53.11111111 3.88888889 53.11111111 5 52 C7.66861601 34.92816878 7.61328299 17.95164055 0 2 C0 1.34 0 0.68 0 0 Z " fill="#EB9A44" transform="translate(871,230)"/>
<path d="M0 0 C1.85899743 0.00748436 3.71800288 0.01316687 5.57701111 0.01715088 C10.40868924 0.03223479 15.2398664 0.07136199 20.0713501 0.1159668 C25.02601347 0.15729743 29.98075985 0.17524159 34.93554688 0.1953125 C44.61219616 0.23787778 54.28847788 0.30591268 63.96484375 0.390625 C63.96484375 0.720625 63.96484375 1.050625 63.96484375 1.390625 C52.15960588 2.06809743 40.39254701 2.47671312 28.56640625 2.41796875 C27.42492126 2.41246002 26.28343628 2.40695129 25.10736084 2.40127563 C20.41637705 2.37383507 15.7255249 2.33880954 11.03466797 2.29467773 C-8.59427439 1.99476875 -8.59427439 1.99476875 -28.03515625 4.390625 C-28.36515625 4.720625 -28.69515625 5.050625 -29.03515625 5.390625 C-30.06125 5.50148438 -31.08734375 5.61234375 -32.14453125 5.7265625 C-36.47726642 6.46608557 -39.49005984 7.91271444 -43.28515625 10.015625 C-45.51739027 11.24947587 -47.70167734 12.34114579 -50.03515625 13.390625 C-51.02515625 13.060625 -52.01515625 12.730625 -53.03515625 12.390625 C-50.73420738 11.11472872 -48.42247049 9.87179423 -46.09765625 8.640625 C-45.47697266 8.29257812 -44.85628906 7.94453125 -44.21679688 7.5859375 C-30.35790776 0.35521274 -15.26126164 -0.18381686 0 0 Z " fill="#BC9D59" transform="translate(720.03515625,449.609375)"/>
<path d="M0 0 C5.23351176 0.15392682 8.49475108 3.45060436 12 7 C14 10 14 10 13.625 12.6875 C13.41875 13.450625 13.2125 14.21375 13 15 C10.8125 15.8125 10.8125 15.8125 8 16 C5.5 13.875 5.5 13.875 3 11 C2.05125 10.175 1.1025 9.35 0.125 8.5 C-2 6 -2 6 -1.875 3.25 C-1 1 -1 1 0 0 Z " fill="#F3862C" transform="translate(780,234)"/>
<path d="M0 0 C0.69416016 -0.01224609 1.38832031 -0.02449219 2.10351562 -0.03710938 C3.92470901 -0.04239842 5.7453692 0.06580793 7.5625 0.1875 C8.2225 0.8475 8.8825 1.5075 9.5625 2.1875 C9.00694444 6.74305556 9.00694444 6.74305556 7.5625 8.1875 C5.07011431 8.31403198 2.61779559 8.37269825 0.125 8.375 C-0.91624023 8.39336914 -0.91624023 8.39336914 -1.97851562 8.41210938 C-3.79970901 8.41739842 -5.6203692 8.30919207 -7.4375 8.1875 C-8.0975 7.5275 -8.7575 6.8675 -9.4375 6.1875 C-8.60395461 -0.6475722 -6.21240276 0.00573629 0 0 Z " fill="#E07A3A" transform="translate(775.4375,260.8125)"/>
<path d="M0 0 C1.875 0.75 1.875 0.75 2.875 1.75 C2.97481214 4.4273138 3.01379875 7.07304175 3 9.75 C3.00386719 10.50023437 3.00773438 11.25046875 3.01171875 12.0234375 C3.00161053 17.62338947 3.00161053 17.62338947 1.875 18.75 C-0.5625 18.9375 -0.5625 18.9375 -3.125 18.75 C-5.98836371 15.88663629 -5.42516187 13.79771654 -5.4375 9.8125 C-5.45425781 8.56597656 -5.47101562 7.31945312 -5.48828125 6.03515625 C-5.125 2.75 -5.125 2.75 -3.73828125 0.79296875 C-2.125 -0.25 -2.125 -0.25 0 0 Z " fill="#F39330" transform="translate(811.125,223.25)"/>
<path d="M0 0 C1.32 0.33 2.64 0.66 4 1 C-4.73436364 5.86752372 -13.3569877 9.71458613 -23 12.4375 C-24.30650513 12.80705811 -24.30650513 12.80705811 -25.6394043 13.18408203 C-33.12047004 15.20110982 -40.22169522 16.14352401 -48 16.0625 C-49.134375 16.05347656 -50.26875 16.04445313 -51.4375 16.03515625 C-52.283125 16.02355469 -53.12875 16.01195312 -54 16 C-54.36256858 14.5437328 -54.71479793 13.08488815 -55.0625 11.625 C-55.35833984 10.40683594 -55.35833984 10.40683594 -55.66015625 9.1640625 C-56 7 -56 7 -55 5 C-54.67 6.65 -54.34 8.3 -54 10 C-53.34 10 -52.68 10 -52 10 C-52 11.32 -52 12.64 -52 14 C-49.18711295 13.85980308 -46.37483115 13.71312045 -43.5625 13.5625 C-42.76005859 13.52318359 -41.95761719 13.48386719 -41.13085938 13.44335938 C-37.24760439 13.5945704 -37.24760439 13.5945704 -34 12 C-32.36086721 11.67276841 -30.71301361 11.38889699 -29.0625 11.125 C-24.33299277 10.30702281 -19.85354432 9.15674591 -15.2890625 7.68359375 C-12.87784107 6.96351909 -10.47302533 6.45877678 -8 6 C-8 5.34 -8 4.68 -8 4 C-6.68 4 -5.36 4 -4 4 C-4 3.34 -4 2.68 -4 2 C-2.68 2 -1.36 2 0 2 C0 1.34 0 0.68 0 0 Z " fill="#D7833B" transform="translate(815,373)"/>
<path d="M0 0 C7.55636583 1.46089739 12.61586977 7.2919915 16.96875 13.265625 C18 15 18 15 18 17 C18.66 17 19.32 17 20 17 C20 18.32 20 19.64 20 21 C20.66 21 21.32 21 22 21 C26.45645912 33.41442183 27.74332069 45.69288423 22 58 C21.34 57.67 20.68 57.34 20 57 C20.48146484 55.30617188 20.48146484 55.30617188 20.97265625 53.578125 C23.9354348 41.64303478 23.29655724 28.67749521 17 18 C13.0577203 11.51688685 7.73326558 6.88474228 2 2 C1.34 1.34 0.68 0.68 0 0 Z " fill="#EEA34A" transform="translate(843,221)"/>
<path d="M0 0 C0.66 0 1.32 0 2 0 C2 8.25 2 16.5 2 25 C18.03097054 22.02518072 34.41796181 17.19442182 46 5 C46.66 5.33 47.32 5.66 48 6 C40.04172786 14.55426609 31.69140213 19.0007728 20.8984375 23.2487793 C19.36779659 23.85446115 17.85608065 24.5078462 16.3515625 25.17578125 C13.46378924 26.18794098 10.79782525 26.45853776 7.75 26.6875 C6.16445313 26.81705078 6.16445313 26.81705078 4.546875 26.94921875 C3.70640625 26.96597656 2.8659375 26.98273437 2 27 C0.22509454 25.22509454 0.76500027 22.62215098 0.68359375 20.21484375 C0.62075195 18.46010742 0.62075195 18.46010742 0.55664062 16.66992188 C0.51732422 15.43822266 0.47800781 14.20652344 0.4375 12.9375 C0.39431641 11.70193359 0.35113281 10.46636719 0.30664062 9.19335938 C0.20015802 6.12902665 0.09814576 3.06460927 0 0 Z " fill="#3B8C61" transform="translate(564,531)"/>
<path d="M0 0 C0.33 0.66 0.66 1.32 1 2 C-0.0004753 4.10394071 -1.1021923 6.16017298 -2.25 8.1875 C-5.17950221 13.39490735 -5.17950221 13.39490735 -7.6875 18.8125 C-10.50103504 25.64537082 -13.73094728 31.19324346 -18.3984375 36.953125 C-20.13216363 39.06907685 -20.13216363 39.06907685 -21.6875 41.9375 C-23.18897375 44.29695875 -24.4160882 45.01989553 -27 46 C-25.50643978 42.64523396 -23.53314746 40.18629547 -21.1875 37.375 C-15.43304699 29.870819 -11.52884744 21.47947247 -7.43041992 12.98974609 C-6.89908447 11.88969238 -6.36774902 10.78963867 -5.8203125 9.65625 C-5.34867676 8.66431641 -4.87704102 7.67238281 -4.39111328 6.65039062 C-3.11163528 4.21269088 -1.72139662 2.14111007 0 0 Z " fill="#419062" transform="translate(642,487)"/>
<path d="M0 0 C-5.70770176 3.11224784 -10.49647456 5.44650847 -17 6 C-17.33 6.33 -17.66 6.66 -18 7 C-26.31939654 8.96509884 -34.4892168 9.24708725 -43 9 C-43.33 9.66 -43.66 10.32 -44 11 C-44 9.68 -44 8.36 -44 7 C-42.72769531 6.92523438 -41.45539062 6.85046875 -40.14453125 6.7734375 C-29.15848851 5.99541301 -19.09129098 4.28197951 -8.5793457 0.94482422 C-7.3277063 0.5486792 -7.3277063 0.5486792 -6.05078125 0.14453125 C-5.31512939 -0.09934326 -4.57947754 -0.34321777 -3.8215332 -0.59448242 C-2 -1 -2 -1 0 0 Z " fill="#F9E9CE" transform="translate(805,382)"/>
<path d="M0 0 C2.52588702 2.36292656 3.88820837 3.66462511 5 7 C5.66 7.66 6.32 8.32 7 9 C7.37890625 11.27734375 7.37890625 11.27734375 7.5625 13.9375 C7.77706165 16.91071147 8.05019358 19.15058074 9 22 C9.07029121 24.57265818 9.09370832 27.11641431 9.0625 29.6875 C9.05798828 30.38939453 9.05347656 31.09128906 9.04882812 31.81445312 C9.03706927 33.54300538 9.01913454 35.27151365 9 37 C8.67 37 8.34 37 8 37 C7.92483154 36.40574219 7.84966309 35.81148438 7.7722168 35.19921875 C7.42057578 32.46476464 7.05414139 29.73248163 6.6875 27 C6.51057617 25.59814453 6.51057617 25.59814453 6.33007812 24.16796875 C5.53744422 18.3553201 4.21791082 13.42680307 2 8 C1.23374175 5.34473077 0.62541811 2.69410879 0 0 Z " fill="#F4A94F" transform="translate(871,230)"/>
<path d="M0 0 C0.33 0 0.66 0 1 0 C1.09765625 6.15234375 1.09765625 6.15234375 1 8 C0.67 8.33 0.34 8.66 0 9 C-0.165 10.155 -0.33 11.31 -0.5 12.5 C-1 16 -1 16 -2 17 C-2.25003964 20.45821402 -2.25003964 20.45821402 -2 24 C-1.34 24.66 -0.68 25.32 0 26 C2.22128555 26.02308597 2.22128555 26.02308597 4.625 25.625 C5.44226563 25.51414062 6.25953125 25.40328125 7.1015625 25.2890625 C7.72804688 25.19367188 8.35453125 25.09828125 9 25 C6.62741513 27.19007834 5.23535087 27.965678 2 28.4375 C-1 28 -1 28 -3.4375 26.625 C-5.96757102 22.37448069 -4.98167962 18.70718424 -4 14 C-2.78419577 9.29303102 -1.43880415 4.64432596 0 0 Z " fill="#E27338" transform="translate(762,312)"/>
<path d="M0 0 C0.66 0.33 1.32 0.66 2 1 C1.17757812 1.73863281 0.35515625 2.47726562 -0.4921875 3.23828125 C-7.76109534 9.82432911 -14.55120447 16.60499294 -21 24 C-21 17.83675726 -14.62289629 12.51313086 -10.5 8.25 C-7.24892091 5.08738564 -3.75849524 2.53123149 0 0 Z " fill="#66955A" transform="translate(665,463)"/>
<path d="M0 0 C4.95 0 9.9 0 15 0 C15 1.32 15 2.64 15 4 C10.05 4 5.1 4 0 4 C0 2.68 0 1.36 0 0 Z " fill="#FB6E19" transform="translate(768,263)"/>
<path d="M0 0 C2.05078125 0.03255208 4.1015625 0.06510417 6.15234375 0.09765625 C-0.91538453 4.22049774 -8.41344292 4.37257598 -16.34765625 4.22265625 C-17.26546875 4.21363281 -18.18328125 4.20460938 -19.12890625 4.1953125 C-21.36877181 4.17198057 -23.60806808 4.1392486 -25.84765625 4.09765625 C-25.84765625 3.43765625 -25.84765625 2.77765625 -25.84765625 2.09765625 C-25.15615479 2.0726001 -24.46465332 2.04754395 -23.75219727 2.02172852 C-20.63797759 1.90613464 -17.52408836 1.78324383 -14.41015625 1.66015625 C-12.77723633 1.60118164 -12.77723633 1.60118164 -11.11132812 1.54101562 C-10.07685547 1.49912109 -9.04238281 1.45722656 -7.9765625 1.4140625 C-7.0182251 1.37740479 -6.0598877 1.34074707 -5.07250977 1.30297852 C-2.61865168 1.07652239 -2.34746492 0.1240732 0 0 Z " fill="#E6823E" transform="translate(827.84765625,316.90234375)"/>
<path d="M0 0 C2 1.0625 2 1.0625 4 3 C4.41271713 8.21055372 3.51475986 12.46719421 2 17.4375 C1.62875 18.67371094 1.2575 19.90992188 0.875 21.18359375 C0.58625 22.11300781 0.2975 23.04242188 0 24 C1.98 23.34 3.96 22.68 6 22 C6 22.66 6 23.32 6 24 C2.52692308 26.10865385 2.52692308 26.10865385 -0.140625 25.55859375 C-0.75421875 25.37425781 -1.3678125 25.18992187 -2 25 C-1.43724182 17.90924697 -0.20499473 11.40998947 3 5 C2.34 5 1.68 5 1 5 C0.67 3.35 0.34 1.7 0 0 Z " fill="#E5793B" transform="translate(774,297)"/>
<path d="M0 0 C1.5631897 0.00785522 1.5631897 0.00785522 3.15795898 0.01586914 C4.28266602 0.0190918 5.40737305 0.02231445 6.56616211 0.02563477 C7.75016602 0.03401367 8.93416992 0.04239258 10.15405273 0.05102539 C11.34192383 0.05553711 12.52979492 0.06004883 13.75366211 0.06469727 C16.69967499 0.07652864 19.64558954 0.09301252 22.59155273 0.11352539 C22.59155273 0.44352539 22.59155273 0.77352539 22.59155273 1.11352539 C21.60759521 1.15110962 21.60759521 1.15110962 20.60375977 1.18945312 C17.6411509 1.30525799 14.67887242 1.42805425 11.71655273 1.55102539 C10.68401367 1.5903418 9.65147461 1.6296582 8.58764648 1.67016602 C7.60151367 1.71206055 6.61538086 1.75395508 5.59936523 1.79711914 C4.68815918 1.83377686 3.77695312 1.87043457 2.83813477 1.90820312 C0.55671792 1.97929604 0.55671792 1.97929604 -1.40844727 3.11352539 C-1.40844727 3.77352539 -1.40844727 4.43352539 -1.40844727 5.11352539 C4.53155273 5.44352539 10.47155273 5.77352539 16.59155273 6.11352539 C16.59155273 6.44352539 16.59155273 6.77352539 16.59155273 7.11352539 C13.4457385 7.14241053 10.29995805 7.16028462 7.15405273 7.17602539 C5.80730469 7.18859375 5.80730469 7.18859375 4.43334961 7.20141602 C3.15234375 7.20625 3.15234375 7.20625 1.84545898 7.21118164 C1.05469971 7.21641846 0.26394043 7.22165527 -0.55078125 7.22705078 C-2.40844727 7.11352539 -2.40844727 7.11352539 -3.40844727 6.11352539 C-3.53344727 3.61352539 -3.53344727 3.61352539 -3.40844727 1.11352539 C-2.40844727 0.11352539 -2.40844727 0.11352539 0 0 Z " fill="#3C9157" transform="translate(673.408447265625,374.886474609375)"/>
<path d="M0 0 C0.66 0.33 1.32 0.66 2 1 C-8.5261675 5.90225768 -19.20181849 10.72265727 -31 8 C-31 7.67 -31 7.34 -31 7 C-30.319375 6.98582031 -29.63875 6.97164062 -28.9375 6.95703125 C-19.71004525 6.50302084 -11.66250755 3.97114975 -3 1 C-2.01 0.67 -1.02 0.34 0 0 Z " fill="#2D8256" transform="translate(597,570)"/>
<path d="M0 0 C-5.47059581 1.84532714 -10.18819928 2.25309068 -15.9375 2.125 C-16.71673828 2.11597656 -17.49597656 2.10695313 -18.29882812 2.09765625 C-20.19935447 2.07433691 -22.09972008 2.03847586 -24 2 C-23.67 3.65 -23.34 5.3 -23 7 C-24.7074998 5.71937515 -26.37373596 4.38232443 -28 3 C-28 2.34 -28 1.68 -28 1 C-26.85402344 0.93941406 -25.70804688 0.87882812 -24.52734375 0.81640625 C-22.99738703 0.73193011 -21.46743959 0.64728573 -19.9375 0.5625 C-18.80924805 0.50352539 -18.80924805 0.50352539 -17.65820312 0.44335938 C-14.09280708 0.24270938 -10.63372824 -0.05274313 -7.09375 -0.5625 C-4.26117598 -0.96306602 -2.6518449 -0.95466416 0 0 Z " fill="#C98237" transform="translate(779,366)"/>
<path d="M0 0 C0.33 0.66 0.66 1.32 1 2 C-0.0004753 4.10394071 -1.1021923 6.16017298 -2.25 8.1875 C-4.77216467 12.70933645 -7.07639694 17.19099234 -9 22 C-9.33 22.66 -9.66 23.32 -10 24 C-10.66 24 -11.32 24 -12 24 C-10.44651947 18.67741916 -8.05642112 14.04057184 -5.4375 9.1875 C-4.8197168 8.02444336 -4.8197168 8.02444336 -4.18945312 6.83789062 C-1.14773261 1.14773261 -1.14773261 1.14773261 0 0 Z " fill="#4D9563" transform="translate(642,487)"/>
<path d="M0 0 C4.19360449 0.67097672 7.40334352 2.8558394 11 5 C11 5.66 11 6.32 11 7 C11.99 7 12.98 7 14 7 C15.6875 8.375 15.6875 8.375 17 10 C17 10.66 17 11.32 17 12 C13.0355211 11.38644969 10.4475346 9.40143734 7.25 7.0625 C6.26515625 6.35222656 5.2803125 5.64195312 4.265625 4.91015625 C3.51796875 4.27980469 2.7703125 3.64945313 2 3 C2 2.34 2 1.68 2 1 C1.34 0.67 0.68 0.34 0 0 Z " fill="#F8B55F" transform="translate(845,207)"/>
<path d="M0 0 C0.99 0.33 1.98 0.66 3 1 C1.63875 1.86625 1.63875 1.86625 0.25 2.75 C-5.50298005 6.73283234 -7.23269872 9.18326649 -9 16 C-9.66 16.66 -10.32 17.32 -11 18 C-10.36704613 11.6704613 -9.26483325 7.04387391 -4.4375 2.6875 C-2 1 -2 1 0 0 Z " fill="#FED49B" transform="translate(897,209)"/>
<path d="M0 0 C0.66 0.66 1.32 1.32 2 2 C0.40714271 4.51503782 -0.50956042 5.81690256 -3.34375 6.875 C-6.40408963 8.17114384 -8.03184489 9.72837938 -10.3125 12.125 C-11.00988281 12.84945313 -11.70726562 13.57390625 -12.42578125 14.3203125 C-12.94527344 14.87460937 -13.46476563 15.42890625 -14 16 C-14.33 15.34 -14.66 14.68 -15 14 C-13.33333333 12.33333333 -11.66666667 10.66666667 -10 9 C-9.34 8.29875 -8.68 7.5975 -8 6.875 C-5.83374206 4.84413318 -3.5439816 3.51263771 -1 2 C-0.67 1.34 -0.34 0.68 0 0 Z " fill="#86A875" transform="translate(679,479)"/>
<path d="M0 0 C-1 1 -1 1 -4.5625 1.0625 C-5.696875 1.041875 -6.83125 1.02125 -8 1 C-8 1.66 -8 2.32 -8 3 C-17.41002278 6.25968109 -17.41002278 6.25968109 -22 7 C-19.65276062 4.31524908 -17.43528366 3.15282986 -14.125 1.875 C-13.28195312 1.54242188 -12.43890625 1.20984375 -11.5703125 0.8671875 C-7.41631814 -0.53431212 -4.23412366 -1.41137455 0 0 Z " fill="#EB9A4B" transform="translate(796,202)"/>
<path d="M0 0 C0.66 0.33 1.32 0.66 2 1 C-2.62 5.62 -7.24 10.24 -12 15 C-12.66 14.67 -13.32 14.34 -14 14 C-9.61932717 8.89662734 -5.32423478 4.12628195 0 0 Z " fill="#DFF5E8" transform="translate(598,404)"/>
<path d="M0 0 C0 4.91886814 -3.68826689 7.6051539 -7 11 C-9.27699716 13.08798002 -11.60502418 15.0449177 -14 17 C-14.66 16.67 -15.32 16.34 -16 16 C-15.26394531 15.34773438 -14.52789063 14.69546875 -13.76953125 14.0234375 C-8.82850728 9.5980554 -4.03806341 5.2912555 0 0 Z " fill="#E68541" transform="translate(832,331)"/>
<path d="M0 0 C-2.12232979 1.17176518 -4.24757791 2.33754785 -6.375 3.5 C-6.97828125 3.83386719 -7.5815625 4.16773438 -8.203125 4.51171875 C-12.7734375 7 -12.7734375 7 -15 7 C-15 6.34 -15 5.68 -15 5 C-14.01 5 -13.02 5 -12 5 C-12 4.34 -12 3.68 -12 3 C-10.75823305 2.29773859 -9.50614401 1.61370891 -8.25 0.9375 C-7.20585938 0.36322266 -7.20585938 0.36322266 -6.140625 -0.22265625 C-3.63859372 -1.1312406 -2.4667645 -0.88336837 0 0 Z " fill="#E57436" transform="translate(786,330)"/>
<path d="M0 0 C4 4 8 8 12 12 C7.97802227 12 6.92040205 10.7067141 4 8 C0 2.59459459 0 2.59459459 0 0 Z " fill="#E57D41" transform="translate(759,282)"/>
<path d="M0 0 C0.99 0 1.98 0 3 0 C3.33 2.31 3.66 4.62 4 7 C3.01 5.68 2.02 4.36 1 3 C-0.32 5.31 -1.64 7.62 -3 10 C-3.33 10 -3.66 10 -4 10 C-4 8.35 -4 6.7 -4 5 C-3.34 4.67 -2.68 4.34 -2 4 C-0.86649466 1.98330173 -0.86649466 1.98330173 0 0 Z " fill="#F4B76C" transform="translate(883,185)"/>
<path d="M0 0 C4.52156583 2.32537671 7.13279593 4.86785295 10 9 C9.8125 11.375 9.8125 11.375 9 13 C8.7525 12.4225 8.505 11.845 8.25 11.25 C6.4644225 8.0359605 3.92294187 5.85701745 1.25 3.375 C0 2 0 2 0 0 Z " fill="#E89145" transform="translate(784,235)"/>
<path d="M0 0 C0.66 0.33 1.32 0.66 2 1 C1.36191406 1.62648438 0.72382812 2.25296875 0.06640625 2.8984375 C-0.75988281 3.71570313 -1.58617187 4.53296875 -2.4375 5.375 C-3.26121094 6.18710937 -4.08492187 6.99921875 -4.93359375 7.8359375 C-7.03434672 9.82348515 -7.03434672 9.82348515 -8 12 C-8.66 11.67 -9.32 11.34 -10 11 C-9.09066991 9.72390677 -8.17217147 8.45434447 -7.25 7.1875 C-6.73953125 6.47980469 -6.2290625 5.77210938 -5.703125 5.04296875 C-3.97517642 2.97022309 -2.21473524 1.52624146 0 0 Z " fill="#E2F7EC" transform="translate(543,456)"/>
<path d="M0 0 C3.875 1.875 3.875 1.875 5 3 C7.32817964 3.36760731 9.6618385 3.70241581 12 4 C11.67 4.66 11.34 5.32 11 6 C7.14521782 6.35858439 5.42240542 6.2754818 2.125 4.125 C1.42375 3.42375 0.7225 2.7225 0 2 C0 1.34 0 0.68 0 0 Z " fill="#E7853F" transform="translate(804,279)"/>
<path d="M0 0 C7.66742597 5.96583144 7.66742597 5.96583144 9 11 C4.55092795 9.51697598 2.25420608 5.91714499 0 2 C0 1.34 0 0.68 0 0 Z " fill="#F9B257" transform="translate(862,219)"/>
<path d="M0 0 C0.99 0.33 1.98 0.66 3 1 C0.69 3.64 -1.62 6.28 -4 9 C-4 5.00095031 -2.27413033 3.19799578 0 0 Z " fill="#559559" transform="translate(648,478)"/>
<path d="M0 0 C0.66 0 1.32 0 2 0 C2.1953125 6.0546875 2.1953125 6.0546875 2 8 C1.34 8.66 0.68 9.32 0 10 C-0.99 9.67 -1.98 9.34 -3 9 C-2.67 8.01 -2.34 7.02 -2 6 C-1.34 6 -0.68 6 0 6 C0 4.02 0 2.04 0 0 Z " fill="#F8B06C" transform="translate(801,445)"/>
<path d="M0 0 C0.33 0 0.66 0 1 0 C1 2.64 1 5.28 1 8 C2.98 7.34 4.96 6.68 7 6 C7 6.66 7 7.32 7 8 C5.25 9.0625 5.25 9.0625 3 10 C1.68 9.67 0.36 9.34 -1 9 C-0.67 6.03 -0.34 3.06 0 0 Z " fill="#E9722F" transform="translate(773,313)"/>
<path d="M0 0 C2.52588702 2.36292656 3.88820837 3.66462511 5 7 C5.66 7.66 6.32 8.32 7 9 C6.01 10.485 6.01 10.485 5 12 C5 11.01 5 10.02 5 9 C4.01 8.67 3.02 8.34 2 8 C1.26953125 6.15234375 1.26953125 6.15234375 0.8125 3.9375 C0.65394531 3.20402344 0.49539063 2.47054687 0.33203125 1.71484375 C0.22246094 1.14894531 0.11289062 0.58304688 0 0 Z " fill="#FABD71" transform="translate(871,230)"/>
<path d="M0 0 C0.66 1.32 1.32 2.64 2 4 C3.65 4 5.3 4 7 4 C4.37801226 6.15377564 2.35595828 7.40072174 -1 8 C-0.67 5.36 -0.34 2.72 0 0 Z " fill="#FDDFC6" transform="translate(775,313)"/>
<path d="M0 0 C0.66 0 1.32 0 2 0 C1.49073596 4.37967072 0.59292635 7.40979428 -2 11 C-2.99 11.66 -3.98 12.32 -5 13 C-3.98339559 10.26298813 -2.91603244 7.86436009 -1.375 5.375 C0.25051814 3.02467224 0.25051814 3.02467224 0 0 Z " fill="#EA9246" transform="translate(841,314)"/>
<path d="M0 0 C2.97 0.495 2.97 0.495 6 1 C6.33 1.99 6.66 2.98 7 4 C2.375 6.125 2.375 6.125 -1 5 C0.65 4.67 2.3 4.34 4 4 C4 3.34 4 2.68 4 2 C2.68 1.67 1.36 1.34 0 1 C0 0.67 0 0.34 0 0 Z " fill="#EFA651" transform="translate(898,203)"/>
<path d="M0 0 C1.51400391 0.01740234 1.51400391 0.01740234 3.05859375 0.03515625 C4.07050781 0.04417969 5.08242188 0.05320312 6.125 0.0625 C7.29869141 0.07990234 7.29869141 0.07990234 8.49609375 0.09765625 C8.49609375 0.42765625 8.49609375 0.75765625 8.49609375 1.09765625 C7.8928125 1.1234375 7.28953125 1.14921875 6.66796875 1.17578125 C1.39074036 1.50097608 1.39074036 1.50097608 -3.06640625 4.16015625 C-3.54078125 4.79953125 -4.01515625 5.43890625 -4.50390625 6.09765625 C-3.43349052 0.13391149 -3.43349052 0.13391149 0 0 Z " fill="#227A49" transform="translate(552.50390625,475.90234375)"/>
<path d="M0 0 C0.99 0.33 1.98 0.66 3 1 C0.69 3.31 -1.62 5.62 -4 8 C-4.33 7.01 -4.66 6.02 -5 5 C-3.35 3.35 -1.7 1.7 0 0 Z " fill="#248350" transform="translate(531,451)"/>
<path d="M0 0 C0.33 0 0.66 0 1 0 C1.3636198 4.24223102 0.5393228 6.58168085 -2 10 C-2.66 10 -3.32 10 -4 10 C-2.8905928 6.51329166 -1.73662334 3.22515763 0 0 Z " fill="#449565" transform="translate(558,415)"/>
<path d="M0 0 C0 3 0 3 -1.3125 4.60546875 C-1.869375 5.12753906 -2.42625 5.64960938 -3 6.1875 C-3.556875 6.71730469 -4.11375 7.24710937 -4.6875 7.79296875 C-5.120625 8.19128906 -5.55375 8.58960938 -6 9 C-6.66 8.67 -7.32 8.34 -8 8 C-5.33333333 5.33333333 -2.66666667 2.66666667 0 0 Z " fill="#3F935D" transform="translate(579,390)"/>
<path d="M0 0 C1.32554118 3.97662354 0.34765994 6.09887911 -1 10 C-1.66 10.66 -2.32 11.32 -3 12 C-2.49202991 7.6822542 -1.80317221 3.96697886 0 0 Z " fill="#FECB8A" transform="translate(889,215)"/>
<path d="M0 0 C1.39195915 4.17587745 -0.17676781 6.13474776 -2 10 C-2.66 9.67 -3.32 9.34 -4 9 C-2.94124926 5.59687262 -1.99097846 2.98646769 0 0 Z " fill="#2F8457" transform="translate(525,457)"/>
<path d="M0 0 C1 3 1 3 -0.3125 6.625 C-2 10 -2 10 -4 11 C-3.52269162 9.5410574 -3.04308958 8.08286504 -2.5625 6.625 C-2.29566406 5.81289062 -2.02882813 5.00078125 -1.75390625 4.1640625 C-1 2 -1 2 0 0 Z " fill="#E47F3E" transform="translate(747,234)"/>
</svg>
